<svg width="70" height="70" viewBox="0 0 70 70" fill="none" xmlns="http://www.w3.org/2000/svg">
<circle cx="35" cy="35" r="35" fill="black" fill-opacity="0.15"/>
<path d="M23.1909 5.00049C22.9405 4.99557 22.7086 5.02742 22.5 5.10077C23.75 11.2129 22.5 18.1321 22.5 18.1321C22.5 18.1321 15 16.066 8.75 14.8802C8.75 23.1439 16.25 28.7544 16.25 28.7544C16.25 28.7544 8.75 29.9415 5 33.4865C10 37.0194 13.75 37.0195 15 39.391C11.475 42.7404 6.25 45.4411 6.25 45.4411L16.25 47.6543C16.25 47.6543 15 51.7244 12.5 56.443C15.6229 56.443 19.4414 55.633 20.6885 55.3495C23.417 61.0659 28.7606 65 35 65C41.227 65 46.5609 61.0808 49.2944 55.3829C50.4122 55.7042 53.2923 56.443 56.25 56.443C55 52.8979 53.75 47.6543 53.75 47.6543C53.75 47.6543 63.4125 45.7711 63.75 44.2186C60 41.8593 56.25 38.2044 56.25 38.2044C56.25 38.2044 62.5 35.4538 65 29.5494C58.75 29.5494 53.75 28.7544 53.75 28.7544C53.75 28.7544 57.5 20.8213 61.25 16.1027C55 14.9169 47.5 18.1321 47.5 18.1321C47.5 18.1321 46.25 11.0051 46.25 5.10077C42.9125 3.92723 35 13.3999 35 13.3999C35 13.3999 26.9475 5.07435 23.1909 5.00049ZM35 19.77C42.4956 19.77 48.75 26.7761 48.75 35.6616V46.6635C48.75 55.549 42.4956 62.5551 35 62.5551C27.5044 62.5551 21.25 55.549 21.25 46.6635V35.6616C21.25 26.7761 27.5044 19.77 35 19.77ZM24.9512 29.5327C24.3384 29.5344 23.8172 29.9701 23.7202 30.5617C23.6232 31.1534 23.979 31.7266 24.5605 31.9155C24.5605 31.9155 25.4339 32.214 27.019 32.522C25.0987 33.4002 23.75 35.2962 23.75 37.4953C23.75 40.5189 26.2832 42.9962 29.375 42.9962C32.4668 42.9962 35 40.5189 35 37.4953C35 35.7341 34.1265 34.1755 32.7979 33.1666C33.4936 33.1967 34.2198 33.2167 35 33.2167C35.7802 33.2167 36.5064 33.1967 37.2022 33.1666C35.8735 34.1755 35 35.7341 35 37.4953C35 40.5189 37.5332 42.9962 40.625 42.9962C43.7168 42.9962 46.25 40.5189 46.25 37.4953C46.25 35.2962 44.9013 33.4002 42.981 32.522C44.5661 32.214 45.4395 31.9155 45.4395 31.9155C46.0124 31.7144 46.3539 31.1391 46.2484 30.5528C46.1428 29.9666 45.6209 29.5399 45.0122 29.5423C44.8575 29.5433 44.7044 29.5725 44.5606 29.6282C44.5606 29.6282 41.51 30.7719 35 30.7719C28.49 30.7719 25.4395 29.6282 25.4395 29.6282C25.2849 29.5647 25.1188 29.5322 24.9512 29.5327ZM29.375 34.4392C31.1157 34.4392 32.5 35.7929 32.5 37.4953C32.5 39.1976 31.1157 40.5513 29.375 40.5513C27.6343 40.5513 26.25 39.1976 26.25 37.4953C26.25 35.7929 27.6343 34.4392 29.375 34.4392ZM40.625 34.4392C42.3657 34.4392 43.75 35.7929 43.75 37.4953C43.75 39.1976 42.3657 40.5513 40.625 40.5513C38.8843 40.5513 37.5 39.1976 37.5 37.4953C37.5 35.7929 38.8843 34.4392 40.625 34.4392ZM41.25 35.6616C40.5597 35.6616 40 36.2089 40 36.884C40 37.5592 40.5597 38.1065 41.25 38.1065C41.9403 38.1065 42.5 37.5592 42.5 36.884C42.5 36.2089 41.9403 35.6616 41.25 35.6616ZM28.75 36.884C28.0597 36.884 27.5 37.4313 27.5 38.1065C27.5 38.7816 28.0597 39.3289 28.75 39.3289C29.4403 39.3289 30 38.7816 30 38.1065C30 37.4313 29.4403 36.884 28.75 36.884ZM36.2305 42.9795C35.5411 42.99 34.9906 43.5444 35 44.2186V47.6042C35 47.7382 34.987 47.7336 34.9756 47.8119C34.9154 47.7992 35.0024 47.808 34.8999 47.7618C34.2503 47.4686 33.3472 46.7041 33.3472 46.7041C33.0198 46.402 32.5516 46.2954 32.1215 46.4249C31.6913 46.5545 31.3656 46.9001 31.2686 47.3299C31.1716 47.7598 31.3184 48.2074 31.6528 48.5019C31.6528 48.5019 32.6247 49.4292 33.8501 49.9822C34.4628 50.2587 35.2616 50.5607 36.189 50.1422C36.6526 49.9329 37.0371 49.5103 37.2363 49.0606C37.4356 48.611 37.5 48.1377 37.5 47.6042V44.2186C37.5046 43.8882 37.3723 43.57 37.1331 43.3366C36.8939 43.1031 36.5683 42.9743 36.2305 42.9795ZM35 51.5532C29.7917 51.5532 25.8545 52.8377 25.8545 52.8377C25.4305 52.9759 25.1141 53.3247 25.0244 53.7529C24.9348 54.181 25.0856 54.6234 25.42 54.9134C25.7544 55.2033 26.2216 55.2968 26.6455 55.1584C26.6455 55.1584 27.0443 55.0456 27.6172 54.9006C27.6733 55.1508 27.7488 55.4203 27.8784 55.71C28.1682 56.3578 28.9304 56.9653 29.8803 57.3192C29.9266 57.6342 29.8725 57.7226 30.0659 58.1548C30.462 59.0402 31.555 60.1103 33.125 60.1103C34.6949 60.1103 35.788 59.0402 36.1841 58.1548C36.3631 57.7548 36.3052 57.6866 36.355 57.3813C36.639 57.3142 36.6902 57.3877 37.0264 57.1998C37.8409 56.7446 38.6509 55.6871 38.7329 54.2321C41.5183 54.5704 43.3545 55.1584 43.3545 55.1584C43.7784 55.2968 44.2456 55.2033 44.58 54.9134C44.9144 54.6234 45.0652 54.181 44.9756 53.7529C44.8859 53.3247 44.5695 52.9759 44.1455 52.8377C44.1455 52.8377 40.2083 51.5532 35 51.5532ZM35 53.9981C35.4305 53.9981 35.8386 54.0169 36.2476 54.0339C36.2398 54.8582 36.0172 54.9457 35.7861 55.0749C35.5509 55.2063 35.3125 55.2205 35.3125 55.2205C34.6222 55.2206 34.0626 55.7679 34.0625 56.443C34.0625 56.443 34.0448 56.8389 33.894 57.1759C33.7432 57.513 33.7426 57.6654 33.125 57.6654C32.5074 57.6654 32.5067 57.513 32.356 57.1759C32.2052 56.8389 32.1875 56.443 32.1875 56.443C32.1874 55.7679 31.6278 55.2206 30.9375 55.2205C30.3199 55.2205 30.3192 55.0681 30.1685 54.7311C30.1173 54.6166 30.0983 54.507 30.0732 54.3968C31.4354 54.1791 33.116 53.9981 35 53.9981Z" fill="#68C545"/>
</svg>
