<svg width="20" height="20" viewBox="0 0 20 20" fill="none" xmlns="http://www.w3.org/2000/svg">
<path d="M18.8998 1.10016C18.1657 0.366052 17.2825 -0.000666458 16.2501 9.0922e-07H3.74994C2.71685 9.0922e-07 1.83359 0.366719 1.10016 1.10016C0.366052 1.83426 -0.000666458 2.71752 9.0922e-07 3.74994V16.2501C9.0922e-07 17.2831 0.366719 18.1664 1.10016 18.8998C1.83426 19.6339 2.71752 20.0007 3.74994 20H6.667C6.8572 20 7.00035 19.9933 7.09645 19.98C7.20838 19.9579 7.30939 19.8982 7.38275 19.8108C7.47819 19.7107 7.5259 19.5655 7.5259 19.3753L7.5189 18.4894C7.51489 17.9248 7.51289 17.4777 7.51289 17.148L7.21257 17.2001C7.02237 17.2348 6.78179 17.2501 6.49082 17.2461C6.1872 17.2403 5.88455 17.2098 5.58587 17.155C5.26763 17.0973 4.96812 16.9633 4.71295 16.7646C4.44512 16.5621 4.24537 16.2827 4.14035 15.9638L4.01021 15.6634C3.9001 15.4268 3.76233 15.204 3.59978 14.9998C3.41292 14.7568 3.22405 14.592 3.03319 14.5052L2.94309 14.4402C2.88053 14.3948 2.82342 14.3424 2.77291 14.284C2.72467 14.2297 2.68515 14.1682 2.65579 14.1018C2.62976 14.0404 2.65145 13.9904 2.72086 13.9516C2.79026 13.9116 2.9164 13.8919 3.09926 13.8926L3.35953 13.9326C3.53304 13.9667 3.7476 14.0704 4.0032 14.244C4.26154 14.4201 4.47733 14.6516 4.63487 14.9217C4.83508 15.2767 5.076 15.548 5.35763 15.7355C5.63992 15.9224 5.92422 16.0158 6.21052 16.0158C6.49682 16.0158 6.74442 15.9941 6.9533 15.9507C7.1556 15.9088 7.35219 15.843 7.53892 15.7545C7.617 15.1733 7.82956 14.7261 8.17659 14.4131C7.72654 14.3687 7.28048 14.2903 6.84219 14.1789C6.41448 14.0615 6.00318 13.891 5.6179 13.6714C5.21472 13.4519 4.85861 13.1553 4.5698 12.7984C4.29217 12.4514 4.06427 11.9959 3.88608 11.432C3.70856 10.8674 3.6198 10.2161 3.6198 9.47795C3.6198 8.42818 3.9625 7.53391 4.64788 6.79514C4.32755 6.00564 4.35791 5.12071 4.73898 4.14035C4.99124 4.0616 5.36463 4.11999 5.85915 4.31553C6.35367 4.51107 6.71605 4.67791 6.9463 4.81606C7.17654 4.9562 7.36106 5.07366 7.49988 5.16843C8.31362 4.94153 9.15472 4.82768 9.9995 4.83007C10.8591 4.83007 11.6926 4.94286 12.5001 5.16843L12.9946 4.8561C13.375 4.62773 13.7763 4.436 14.1929 4.2835C14.6527 4.10998 15.0044 4.06227 15.248 4.14035C15.6384 5.12138 15.6728 6.00664 15.3511 6.79614C16.0372 7.53358 16.3802 8.42785 16.3802 9.47895C16.3802 10.2171 16.2911 10.8701 16.1129 11.438C15.9354 12.0066 15.7055 12.4624 15.4232 12.8054C15.1285 13.1569 14.771 13.4505 14.3691 13.6714C13.9486 13.9056 13.5406 14.0748 13.1448 14.1789C12.7065 14.2907 12.2605 14.3693 11.8104 14.4141C12.2609 14.8045 12.4864 15.4205 12.4871 16.2621V19.3753C12.4871 19.5222 12.5088 19.6413 12.5522 19.7327C12.5724 19.7766 12.6013 19.816 12.6371 19.8485C12.6728 19.881 12.7148 19.906 12.7604 19.9219C12.8558 19.9566 12.9406 19.978 13.0147 19.986C13.0887 19.9953 13.1949 19.9997 13.333 19.999H16.2501C17.2831 19.999 18.1664 19.6323 18.8998 18.8988C19.6333 18.1654 20 17.2821 20 16.2491V3.74994C20 2.71685 19.6339 1.83359 18.8998 1.10016Z" fill="#1B93AC"/>
</svg>
