<svg width="282" height="60" viewBox="0 0 282 60" fill="none" xmlns="http://www.w3.org/2000/svg">
<path d="M75.27 40.65L74.91 40.77C74.63 40.87 74.3 40.94 73.92 40.98C73.56 41 73.33 41.01 73.23 41.01C73.17 41.01 73.03 41 72.81 40.98C72.61 40.94 72.46 40.92 72.36 40.92C72.3 40.92 72.22 40.97 72.12 41.07L70.77 40.59C70.77 40.49 70.77 40.4 70.77 40.32C70.79 40.24 70.81 40.15 70.83 40.05C70.87 39.77 70.9 39.51 70.92 39.27C70.96 39.01 70.96 38.77 70.92 38.55C71.08 38.39 71.1 37.9 70.98 37.08C70.86 36.24 70.8 35.71 70.8 35.49C70.8 35.43 70.82 35.27 70.86 35.01C70.9 34.75 70.94 34.52 70.98 34.32C71 34.26 71.04 34.18 71.1 34.08C71.18 33.98 71.22 33.87 71.22 33.75C71.18 33.17 71.2 32.7 71.28 32.34C71.38 31.96 71.41 31.58 71.37 31.2C71.35 31.1 71.36 31 71.4 30.9C71.44 30.8 71.46 30.67 71.46 30.51V29.52C71.46 29.24 71.46 28.93 71.46 28.59C71.46 28.23 71.47 27.82 71.49 27.36C71.51 26.46 71.52 25.86 71.52 25.56C71.54 25.26 71.57 25.05 71.61 24.93C71.63 24.73 71.68 24.57 71.76 24.45C71.86 24.33 71.91 24.13 71.91 23.85C71.91 23.83 71.87 23.77 71.79 23.67C71.73 23.57 71.65 23.44 71.55 23.28C71.49 23.2 71.45 23.1 71.43 22.98C71.41 22.86 71.4 22.75 71.4 22.65C71.42 22.53 71.43 22.43 71.43 22.35C71.45 22.27 71.46 22.04 71.46 21.66C72 21.5 72.55 21.42 73.11 21.42C73.67 21.42 74.12 21.4 74.46 21.36C74.58 21.34 74.67 21.32 74.73 21.3C74.81 21.28 74.88 21.27 74.94 21.27C75 21.25 75.07 21.24 75.15 21.24C75.25 21.22 75.39 21.21 75.57 21.21C75.65 21.41 75.76 21.63 75.9 21.87C76.04 22.11 76.15 22.33 76.23 22.53C76.49 22.89 76.74 23.06 76.98 23.04C77.22 23.02 77.44 22.93 77.64 22.77C77.86 22.61 78.04 22.44 78.18 22.26C78.32 22.06 78.41 21.96 78.45 21.96L81.84 21.99L84.42 23.76C84.52 23.86 84.65 23.98 84.81 24.12C84.97 24.24 85.14 24.41 85.32 24.63C85.72 25.05 86.02 25.25 86.22 25.23L86.94 26.28C86.9 26.34 86.81 26.52 86.67 26.82C86.55 27.1 86.37 27.5 86.13 28.02C85.67 29.1 85.44 29.94 85.44 30.54L84.84 30.9C84.44 31.06 84.24 31.47 84.24 32.13C83.9 32.09 83.34 32.22 82.56 32.52C82.34 32.62 82.1 32.69 81.84 32.73C81.58 32.75 81.34 32.77 81.12 32.79C80.98 32.81 80.84 32.82 80.7 32.82C80.58 32.82 80.45 32.82 80.31 32.82L79.98 33.57C79.74 33.39 79.47 33.27 79.17 33.21C78.87 33.15 78.57 33.13 78.27 33.15C77.99 33.17 77.72 33.21 77.46 33.27C77.2 33.33 76.98 33.4 76.8 33.48C76.14 33.72 75.8 33.84 75.78 33.84H75.6C75.62 33.86 75.63 33.89 75.63 33.93C75.59 34.13 75.52 34.37 75.42 34.65C75.34 34.91 75.3 35.09 75.3 35.19C75.3 35.31 75.31 35.48 75.33 35.7C75.35 35.9 75.37 36.17 75.39 36.51C75.41 36.83 75.42 37.1 75.42 37.32C75.44 37.54 75.45 37.71 75.45 37.83L75.57 38.64C75.61 38.8 75.64 38.96 75.66 39.12C75.68 39.26 75.71 39.41 75.75 39.57L75.27 40.65ZM76.38 24.57C76.38 24.73 76.38 24.92 76.38 25.14C76.4 25.36 76.42 25.61 76.44 25.89C76.54 27.13 76.57 27.87 76.53 28.11C76.13 28.35 75.89 28.71 75.81 29.19C75.75 29.45 75.69 29.7 75.63 29.94C75.57 30.16 75.5 30.35 75.42 30.51L75.36 30.57C75.36 30.79 75.36 30.95 75.36 31.05C75.38 31.15 75.39 31.27 75.39 31.41L75.96 31.8L76.53 31.65C76.53 32.09 77.07 32.08 78.15 31.62C79.21 31.18 79.81 30.96 79.95 30.96H81.21C81.37 30.74 81.56 30.51 81.78 30.27C82 30.01 82.11 29.85 82.11 29.79L82.5 27.6L82.32 26.85L78.33 24H77.01L76.38 24.57ZM85.08 40.71C85.04 40.53 84.92 40.41 84.72 40.35C84.64 40.27 84.61 40.16 84.63 40.02C84.65 39.88 84.63 39.79 84.57 39.75C84.55 39.71 84.53 39.69 84.51 39.69C84.49 39.69 84.46 39.68 84.42 39.66C84.4 39.62 84.34 39.55 84.24 39.45C84.18 39.37 84.11 39.29 84.03 39.21C83.95 39.11 83.86 38.98 83.76 38.82C83.54 38.54 83.37 38.32 83.25 38.16C83.13 37.98 83.04 37.87 82.98 37.83C82.9 37.79 82.78 37.71 82.62 37.59C82.46 37.47 82.35 37.4 82.29 37.38C82.23 37.32 82.18 37.25 82.14 37.17C82.1 37.09 82.06 37.03 82.02 36.99C81.98 36.95 81.93 36.81 81.87 36.57C81.81 36.33 81.75 36.12 81.69 35.94C81.47 35.74 81.14 35.38 80.7 34.86C80.56 34.72 80.48 34.63 80.46 34.59L80.85 34.02L82.29 34.74C82.31 34.76 82.41 34.76 82.59 34.74C82.79 34.72 83 34.71 83.22 34.71C83.44 34.69 83.65 34.69 83.85 34.71C84.07 34.73 84.21 34.79 84.27 34.89C84.35 34.99 84.45 35.06 84.57 35.1C84.69 35.14 84.81 35.18 84.93 35.22C85.07 35.24 85.18 35.26 85.26 35.28C85.36 35.3 85.42 35.34 85.44 35.4L86.04 36.51C86.12 36.61 86.26 36.78 86.46 37.02C86.68 37.24 86.97 37.55 87.33 37.95C88.05 38.79 88.42 39.22 88.44 39.24L88.35 40.29L85.95 40.98L85.08 40.71ZM93.5613 22.62C93.6013 22.46 93.6213 22.31 93.6213 22.17C93.6413 22.01 93.6613 21.85 93.6813 21.69C93.6813 21.55 93.6813 21.43 93.6813 21.33C93.7013 21.23 93.7113 21.14 93.7113 21.06L93.8613 20.73C93.9213 20.71 94.0013 20.7 94.1013 20.7C94.2013 20.7 94.3213 20.69 94.4613 20.67C94.8813 20.65 95.1513 20.6 95.2713 20.52C95.2713 20.5 95.3213 20.46 95.4213 20.4C95.4813 20.34 95.5313 20.3 95.5713 20.28C95.5913 20.28 95.6613 20.29 95.7813 20.31C95.9013 20.33 96.0613 20.37 96.2613 20.43C96.6013 20.51 96.8413 20.55 96.9813 20.55C97.1613 20.55 97.2613 20.54 97.2813 20.52C97.3013 20.5 97.3613 20.5 97.4613 20.52L97.7313 21.03L98.0013 22.56L97.3713 23.61C97.3513 23.63 97.3313 23.65 97.3113 23.67C97.3113 23.69 97.2913 23.71 97.2513 23.73C97.1513 23.79 97.0313 23.88 96.8913 24L96.8013 24.09L95.9013 24.18C95.7813 24.14 95.6413 24.1 95.4813 24.06C95.3213 24 95.1313 23.93 94.9113 23.85C94.6913 23.77 94.5013 23.7 94.3413 23.64C94.1813 23.56 94.0413 23.5 93.9213 23.46L93.7713 23.31L93.5613 22.62ZM97.2813 27.78L97.1613 28.86L97.2813 29.31L97.1013 29.79L97.1913 30.48L97.0413 31.05L97.1313 31.23L97.0113 32.58L96.8913 35.43C96.8913 35.57 96.8713 35.75 96.8313 35.97C96.7913 36.17 96.7613 36.39 96.7413 36.63C96.7213 36.85 96.7213 37.08 96.7413 37.32C96.7613 37.54 96.8213 37.73 96.9213 37.89C96.9013 38.19 96.8713 38.54 96.8313 38.94C96.7913 39.34 96.7213 39.8 96.6213 40.32C96.4613 40.54 96.2913 40.74 96.1113 40.92C95.9513 41.08 95.6413 41.17 95.1813 41.19C94.9213 41.21 94.6613 41.23 94.4013 41.25C94.1613 41.27 93.9313 41.3 93.7113 41.34C93.5913 41.36 93.4713 41.38 93.3513 41.4C93.2313 41.42 93.1013 41.45 92.9613 41.49L92.2113 40.53C92.2313 40.43 92.2613 40.16 92.3013 39.72C92.3613 39.26 92.4113 38.72 92.4513 38.1C92.4913 37.48 92.5113 36.82 92.5113 36.12C92.5313 35.42 92.5113 34.77 92.4513 34.17L92.6313 33.6L92.9013 32.28L92.9913 31.23L93.1713 30.87L93.2013 30.6L93.3813 29.79L93.5313 28.14L96.2313 27.09L97.2813 27.78ZM114.218 28.56V29.67L114.038 29.85L111.308 29.28L108.908 30.39L108.248 31.92C107.648 33.12 107.208 34.21 106.928 35.19C106.648 36.15 106.678 36.97 107.018 37.65L107.888 39.15L111.038 38.61L112.358 38.16H114.818L115.118 39.21L111.758 40.17L107.018 41.16L105.578 40.23H103.118L102.188 39.21C101.948 38.07 101.978 36.92 102.278 35.76C102.578 34.58 103.028 33.38 103.628 32.16L106.988 29.73L107.828 28.29L108.788 27.93L109.448 27.39L114.008 27.96L114.218 28.56ZM125.854 34.47C125.614 34.51 125.404 34.59 125.224 34.71C125.044 34.83 124.884 34.96 124.744 35.1C124.624 35.22 124.514 35.34 124.414 35.46C124.314 35.56 124.224 35.62 124.144 35.64C124.044 35.58 123.914 35.55 123.754 35.55C123.594 35.53 123.434 35.56 123.274 35.64C123.134 35.7 123.024 35.82 122.944 36C122.884 36.16 122.904 36.39 123.004 36.69L123.124 38.82L123.004 39.93V40.5L122.434 41.31L121.444 41.55H119.464C119.244 41.59 119.064 41.56 118.924 41.46C118.804 41.34 118.744 41.05 118.744 40.59V40.53L119.224 38.73L119.314 36.69L119.524 32.85L119.884 30.27C119.864 30.17 119.844 29.98 119.824 29.7C119.804 29.42 119.774 29.07 119.734 28.65C119.714 28.21 119.694 27.85 119.674 27.57C119.674 27.29 119.674 27.07 119.674 26.91C119.674 26.95 119.744 26.9 119.884 26.76C120.024 26.6 120.144 26.41 120.244 26.19C120.344 25.95 120.384 25.69 120.364 25.41C120.344 25.13 120.174 24.87 119.854 24.63L120.154 22.14C120.294 22.06 120.304 21.82 120.184 21.42L120.784 20.82L121.174 20.76C121.334 20.8 121.494 20.83 121.654 20.85C121.834 20.85 122.034 20.87 122.254 20.91C122.434 20.95 122.594 20.98 122.734 21C122.894 21 123.034 21.03 123.154 21.09L123.754 21.42V21.99C123.794 22.09 123.834 22.25 123.874 22.47C123.914 22.67 123.944 22.92 123.964 23.22C123.964 23.36 123.954 23.52 123.934 23.7C123.914 23.88 123.894 24.05 123.874 24.21C123.874 24.37 123.864 24.51 123.844 24.63C123.824 24.75 123.814 24.82 123.814 24.84C123.814 24.86 123.804 24.91 123.784 24.99C123.784 25.07 123.774 25.15 123.754 25.23C123.734 25.31 123.714 25.38 123.694 25.44C123.674 25.5 123.654 25.52 123.634 25.5C123.614 25.5 123.584 25.56 123.544 25.68C123.524 25.8 123.494 25.95 123.454 26.13C123.434 26.29 123.414 26.46 123.394 26.64C123.374 26.82 123.374 26.96 123.394 27.06C123.414 27.16 123.434 27.32 123.454 27.54C123.474 27.74 123.494 28.02 123.514 28.38C123.514 28.56 123.514 28.72 123.514 28.86C123.534 29 123.544 29.12 123.544 29.22C123.544 29.34 123.554 29.43 123.574 29.49L123.394 31.68L122.854 32.13C122.574 32.69 122.444 33.08 122.464 33.3C122.504 33.52 122.624 33.7 122.824 33.84C123.184 33.78 123.434 33.73 123.574 33.69C123.714 33.65 123.824 33.58 123.904 33.48C123.984 33.38 124.054 33.25 124.114 33.09C124.194 32.93 124.354 32.7 124.594 32.4C124.594 32.44 124.774 32.35 125.134 32.13C125.454 31.93 125.604 31.69 125.584 31.41C125.844 31.29 126.034 31.19 126.154 31.11C126.274 31.03 126.414 30.95 126.574 30.87C126.954 30.59 127.204 30.32 127.324 30.06C127.464 29.8 127.574 29.68 127.654 29.7C127.714 29.7 127.754 29.71 127.774 29.73C127.814 29.75 127.874 29.78 127.954 29.82C128.054 29.76 128.214 29.66 128.434 29.52C128.674 29.36 128.954 29.14 129.274 28.86C129.474 28.7 129.654 28.55 129.814 28.41C129.994 28.27 130.164 28.13 130.324 27.99L131.074 28.08L131.584 29.16L131.254 29.37C131.134 29.49 131.014 29.64 130.894 29.82C130.774 30 130.654 30.18 130.534 30.36C130.434 30.52 130.324 30.67 130.204 30.81C130.084 30.93 129.964 31 129.844 31.02C129.344 31.42 128.784 31.79 128.164 32.13C127.564 32.47 126.974 32.84 126.394 33.24C126.294 33.3 126.204 33.37 126.124 33.45C126.044 33.51 125.964 33.57 125.884 33.63C125.844 33.67 125.824 33.74 125.824 33.84C125.844 33.92 125.864 34.01 125.884 34.11C125.904 34.19 125.914 34.27 125.914 34.35C125.914 34.43 125.894 34.47 125.854 34.47ZM132.874 41.01L130.774 42.06L130.144 41.91L129.424 40.95C129.344 40.85 129.274 40.75 129.214 40.65C129.154 40.53 129.074 40.4 128.974 40.26C128.754 39.9 128.534 39.6 128.314 39.36C128.114 39.1 127.974 38.89 127.894 38.73C127.874 38.69 127.834 38.62 127.774 38.52C127.714 38.42 127.604 38.33 127.444 38.25L127.324 36.66C127.404 36.62 127.334 36.52 127.114 36.36C126.914 36.18 126.704 35.96 126.484 35.7C126.144 35.14 126.054 34.75 126.214 34.53C126.494 34.57 126.804 34.6 127.144 34.62C127.504 34.64 127.894 34.63 128.314 34.59C128.454 34.57 128.574 34.56 128.674 34.56C128.774 34.56 128.874 34.56 128.974 34.56L129.394 34.98C129.394 35 129.384 35.01 129.364 35.01C129.364 35.01 129.364 35.02 129.364 35.04C129.404 35.1 129.464 35.2 129.544 35.34C129.644 35.48 129.774 35.68 129.934 35.94C130.174 36.14 130.344 36.32 130.444 36.48C130.544 36.64 130.614 36.79 130.654 36.93C130.694 37.07 130.724 37.21 130.744 37.35C130.764 37.49 130.824 37.65 130.924 37.83C130.984 37.89 131.074 37.99 131.194 38.13C131.314 38.25 131.464 38.4 131.644 38.58C131.824 38.76 131.954 38.9 132.034 39C132.114 39.1 132.164 39.16 132.184 39.18C132.224 39.22 132.224 39.26 132.184 39.3C132.164 39.34 132.164 39.36 132.184 39.36L132.934 40.47L132.874 41.01ZM146.58 36.99L145.23 36.18L144.72 35.07L142.77 33.06L142.56 32.61L141.45 31.17L141.27 30.63L141.21 30.84C141.19 30.92 141.18 31.1 141.18 31.38C141.2 31.66 141.15 31.86 141.03 31.98C140.97 32.06 140.9 32.22 140.82 32.46C140.74 32.68 140.69 32.83 140.67 32.91L140.58 33.96C140.6 34 140.62 34.03 140.64 34.05C140.68 34.07 140.71 34.12 140.73 34.2C140.75 34.28 140.76 34.41 140.76 34.59C140.76 34.75 140.73 34.99 140.67 35.31C140.55 35.93 140.5 36.41 140.52 36.75C140.56 37.07 140.58 37.25 140.58 37.29C140.58 37.37 140.59 37.53 140.61 37.77C140.65 37.99 140.63 38.3 140.55 38.7C140.45 39.46 140.43 40.07 140.49 40.53L140.16 40.71C140.08 40.69 139.96 40.68 139.8 40.68C139.64 40.68 139.46 40.69 139.26 40.71C139.08 40.71 138.89 40.72 138.69 40.74C138.49 40.74 138.32 40.74 138.18 40.74H137.79L136.53 41.04L135.75 40.62C135.75 40.3 135.79 39.94 135.87 39.54C135.93 39.14 135.98 38.79 136.02 38.49C136.06 38.19 136.08 37.96 136.08 37.8C136.08 37.76 136.06 37.67 136.02 37.53C135.98 37.37 135.95 37.26 135.93 37.2L136.14 32.67C136.2 32.67 136.24 32.6 136.26 32.46C136.28 32.32 136.29 32.17 136.29 32.01C136.29 31.85 136.28 31.7 136.26 31.56C136.24 31.4 136.22 31.3 136.2 31.26C136.18 31.24 136.19 31.16 136.23 31.02C136.29 30.88 136.36 30.73 136.44 30.57L136.65 30.12C136.69 30.04 136.72 29.99 136.74 29.97C136.78 29.93 136.81 29.9 136.83 29.88C136.87 29.76 136.88 29.66 136.86 29.58C136.84 29.5 136.81 29.41 136.77 29.31C136.75 29.21 136.73 29.07 136.71 28.89C136.69 28.71 136.7 28.45 136.74 28.11C136.82 27.43 136.88 26.87 136.92 26.43C136.98 25.97 137.01 25.68 137.01 25.56V24.87C136.97 24.69 136.95 24.52 136.95 24.36C136.97 24.18 136.89 24.04 136.71 23.94L136.74 23.55C136.82 23.37 137.13 23.28 137.67 23.28H139.26C139.38 23.28 139.53 23.22 139.71 23.1C139.91 22.98 140.13 22.91 140.37 22.89C140.47 22.85 140.59 22.8 140.73 22.74C140.87 22.66 140.97 22.62 141.03 22.62C141.11 22.62 141.21 22.64 141.33 22.68C141.47 22.72 141.61 22.8 141.75 22.92V23.55L143.37 26.76L143.85 29.28L144.87 30.93L145.83 33.03L146.28 33.15L147.27 32.25C147.31 32.15 147.35 32.04 147.39 31.92C147.45 31.8 147.52 31.69 147.6 31.59C147.72 31.39 147.86 31.17 148.02 30.93C148.2 30.69 148.41 30.43 148.65 30.15C149.61 29.11 150.03 28.4 149.91 28.02L151.2 25.92C151.54 26.06 151.82 26.03 152.04 25.83C152.28 25.61 152.45 25.12 152.55 24.36C152.55 24.32 152.54 24.26 152.52 24.18C152.5 24.08 152.47 23.99 152.43 23.91C152.69 23.79 152.84 23.67 152.88 23.55C152.92 23.43 152.94 23.25 152.94 23.01C153.18 22.91 153.39 22.85 153.57 22.83C153.77 22.79 153.98 22.74 154.2 22.68L156.24 23.91C156.22 24.09 156.2 24.28 156.18 24.48C156.16 24.68 156.13 24.89 156.09 25.11C156.05 25.39 156.01 25.69 155.97 26.01C155.93 26.31 155.89 26.61 155.85 26.91C155.83 27.19 155.8 27.45 155.76 27.69C155.74 27.93 155.72 28.12 155.7 28.26C155.66 28.46 155.62 28.81 155.58 29.31C155.54 29.79 155.49 30.45 155.43 31.29C155.37 32.95 155.58 33.91 156.06 34.17C156.06 34.31 156.05 34.62 156.03 35.1C156.03 35.58 156.02 36.27 156 37.17C155.98 37.61 155.97 38 155.97 38.34C155.97 38.68 155.97 38.98 155.97 39.24V40.17C155.43 40.31 154.86 40.44 154.26 40.56C153.68 40.68 153.22 40.74 152.88 40.74C152.74 40.74 152.6 40.69 152.46 40.59C152.32 40.49 152.23 40.33 152.19 40.11C152.33 39.99 152.4 39.93 152.4 39.93C152.42 39.93 152.38 39.88 152.28 39.78V36.24L152.49 35.76H152.28V34.38C152.28 34.16 152.27 33.86 152.25 33.48C152.23 33.1 152.2 32.62 152.16 32.04C152.1 31.46 152.06 31.02 152.04 30.72C152.02 30.4 152.01 30.22 152.01 30.18C152.01 30.12 152.06 29.99 152.16 29.79C152.28 29.57 152.39 29.39 152.49 29.25C152.53 29.15 152.54 29.05 152.52 28.95C152.52 28.83 152.53 28.73 152.55 28.65C152.55 28.57 152.59 28.5 152.67 28.44C152.77 28.36 152.84 28.3 152.88 28.26C152.84 28.14 152.79 28.01 152.73 27.87C152.69 27.73 152.67 27.64 152.67 27.6C151.71 27.16 151.42 27.49 151.8 28.59L151.11 30.09L149.04 33.15L147.18 36.72L146.58 36.99ZM173.725 30.75C173.785 31.09 173.815 31.39 173.815 31.65C173.815 31.89 173.805 32.13 173.785 32.37C173.785 32.59 173.795 32.81 173.815 33.03C173.855 33.23 173.935 33.45 174.055 33.69C174.015 33.77 173.915 33.93 173.755 34.17C173.615 34.39 173.515 34.62 173.455 34.86C173.415 35.08 173.385 35.25 173.365 35.37C173.345 35.49 173.325 35.57 173.305 35.61C173.365 35.65 173.415 35.73 173.455 35.85C173.475 35.95 173.455 36.08 173.395 36.24C173.335 36.38 173.215 36.58 173.035 36.84C172.675 37.32 172.475 37.73 172.435 38.07C172.395 38.39 172.315 38.64 172.195 38.82C172.155 38.86 172.025 38.92 171.805 39C171.605 39.08 171.365 39.18 171.085 39.3C170.805 39.4 170.525 39.52 170.245 39.66C169.965 39.8 169.745 39.94 169.585 40.08C169.245 40.14 168.945 40.22 168.685 40.32C168.425 40.42 168.105 40.49 167.725 40.53C167.365 40.61 166.995 40.71 166.615 40.83C166.235 40.93 166.025 40.98 165.985 40.98C165.045 40.98 164.485 41.01 164.305 41.07C164.145 41.13 163.955 41.16 163.735 41.16L161.005 40.17L159.745 38.34C159.745 37.86 159.725 37.46 159.685 37.14C159.665 36.8 159.635 36.51 159.595 36.27C159.555 36.01 159.525 35.77 159.505 35.55C159.485 35.33 159.485 35.08 159.505 34.8C159.565 34.74 159.655 34.6 159.775 34.38C159.895 34.14 160.015 33.87 160.135 33.57C160.275 33.27 160.405 32.96 160.525 32.64C160.665 32.32 160.765 32.05 160.825 31.83C160.985 31.37 161.105 30.97 161.185 30.63C161.265 30.27 161.325 29.95 161.365 29.67C161.525 29.57 161.655 29.46 161.755 29.34C161.855 29.22 161.955 29.12 162.055 29.04C162.875 28.56 163.585 28.17 164.185 27.87C164.785 27.55 165.345 27.35 165.865 27.27L166.765 27.21C166.865 27.23 166.955 27.25 167.035 27.27C167.115 27.29 167.195 27.31 167.275 27.33C167.395 27.37 167.505 27.4 167.605 27.42C167.705 27.42 167.765 27.42 167.785 27.42L168.385 28.35C168.385 28.53 168.345 28.68 168.265 28.8C168.185 28.9 168.265 28.97 168.505 29.01C168.765 29.07 168.905 29.11 168.925 29.13V29.16C169.245 29.16 169.575 29.09 169.915 28.95C170.255 28.79 170.595 28.71 170.935 28.71C171.015 28.71 171.155 28.75 171.355 28.83C171.555 28.89 171.765 28.97 171.985 29.07C172.205 29.17 172.405 29.27 172.585 29.37C172.785 29.45 172.925 29.51 173.005 29.55C172.965 29.85 172.975 30.06 173.035 30.18C173.095 30.3 173.175 30.39 173.275 30.45C173.375 30.49 173.465 30.53 173.545 30.57C173.645 30.59 173.705 30.65 173.725 30.75ZM168.355 38.25C168.655 38.05 168.945 37.41 169.225 36.33C169.385 35.75 169.515 35.32 169.615 35.04C169.735 34.74 169.795 34.46 169.795 34.2C169.795 33.76 169.645 33.24 169.345 32.64C169.185 32.32 169.065 32.05 168.985 31.83C168.905 31.61 168.845 31.39 168.805 31.17C168.645 31.09 168.555 30.97 168.535 30.81C168.535 30.63 168.455 30.45 168.295 30.27C168.095 30.11 167.975 30.05 167.935 30.09C167.895 30.13 167.855 30.15 167.815 30.15H167.545C167.385 30.15 167.165 30.18 166.885 30.24C166.625 30.3 166.415 30.44 166.255 30.66C166.015 30.92 165.805 31.13 165.625 31.29C165.465 31.43 165.375 31.52 165.355 31.56C165.155 31.94 164.975 32.27 164.815 32.55C164.655 32.81 164.525 33.02 164.425 33.18L164.155 33.81C164.035 34.11 163.985 34.51 164.005 35.01C164.045 35.09 164.085 35.27 164.125 35.55C164.165 35.81 164.045 36.09 163.765 36.39C163.705 36.45 163.645 36.57 163.585 36.75C163.525 36.91 163.485 37.1 163.465 37.32C163.445 37.54 163.465 37.76 163.525 37.98C163.605 38.2 163.755 38.39 163.975 38.55C164.255 38.75 164.545 38.95 164.845 39.15C165.145 39.33 165.335 39.42 165.415 39.42H165.745C165.865 39.42 165.975 39.45 166.075 39.51L168.355 38.25ZM188.458 27.9V29.28H187.678L186.538 30.18C185.558 30.32 184.758 30.52 184.138 30.78C183.518 31.02 183.228 31.36 183.268 31.8C183.228 31.9 183.208 32.02 183.208 32.16C183.208 32.28 183.278 32.34 183.418 32.34L182.818 35.34L182.548 35.67V39L182.368 40.68L181.768 41.28L178.348 41.04L177.598 40.02L177.808 39.48L177.688 37.83L178.048 34.8L178.348 32.58C178.348 32.52 178.358 32.47 178.378 32.43C178.378 32.39 178.378 32.34 178.378 32.28C178.398 32.22 178.408 32.17 178.408 32.13C178.508 32.05 178.568 31.87 178.588 31.59C178.628 31.31 178.638 31.13 178.618 31.05C178.618 30.91 178.608 30.78 178.588 30.66C178.588 30.54 178.548 30.28 178.468 29.88C178.448 29.76 178.378 29.62 178.258 29.46C178.158 29.28 178.048 29.12 177.928 28.98L178.318 28.05H178.888L181.978 27.48L182.728 27.84C182.668 28.18 182.658 28.47 182.698 28.71C182.758 28.93 182.838 29.1 182.938 29.22C183.058 29.34 183.188 29.42 183.328 29.46C183.468 29.48 183.588 29.46 183.688 29.4L184.228 29.1C184.328 29.06 184.358 28.95 184.318 28.77C184.298 28.59 184.308 28.36 184.348 28.08L188.068 27.42L188.458 27.9ZM190.67 30.39C190.59 30.17 190.53 29.88 190.49 29.52C190.45 29.14 190.41 28.82 190.37 28.56L190.94 27.48C191.3 27.42 191.55 27.4 191.69 27.42C191.85 27.44 191.97 27.47 192.05 27.51C192.17 27.49 192.34 27.47 192.56 27.45C192.8 27.41 193.16 27.35 193.64 27.27C193.68 26.93 193.75 26.55 193.85 26.13C193.95 25.71 194.02 25.24 194.06 24.72L193.64 24.3L193.61 23.85L193.94 23.07H197.54L198.89 23.13C199.03 23.29 199.09 23.48 199.07 23.7C199.05 23.9 199.01 24.09 198.95 24.27C198.89 24.45 198.83 24.6 198.77 24.72C198.73 24.82 198.74 24.85 198.8 24.81V26.67C198.68 26.77 198.59 26.89 198.53 27.03C198.47 27.15 198.42 27.29 198.38 27.45L198.44 27.51L200.18 27.45C200.24 27.47 200.3 27.49 200.36 27.51C200.42 27.53 200.49 27.55 200.57 27.57C200.81 27.63 201.12 27.66 201.5 27.66L201.77 27.96L201.44 29.4C201.32 29.4 201.16 29.42 200.96 29.46C200.76 29.48 200.55 29.51 200.33 29.55C200.13 29.57 199.94 29.59 199.76 29.61C199.6 29.63 199.49 29.64 199.43 29.64L198.17 30C198.09 30.22 198.03 30.41 197.99 30.57C197.97 30.71 197.96 30.85 197.96 30.99C197.96 31.11 197.96 31.25 197.96 31.41C197.98 31.55 197.99 31.73 197.99 31.95L197.78 35.76C197.72 36.1 197.7 36.41 197.72 36.69C197.76 36.97 197.81 37.21 197.87 37.41C197.91 37.51 197.95 37.61 197.99 37.71C198.03 37.81 198.07 37.91 198.11 38.01L198.38 38.79L198.5 38.94L201.41 38.04L202.52 37.77L203.18 38.37L202.46 39.33L201.77 39.69L201.17 39.81L197.72 41.34C197.62 41.34 197.54 41.33 197.48 41.31C197.38 41.31 197.26 41.31 197.12 41.31C197 41.29 196.86 41.27 196.7 41.25C195.98 41.19 195.44 41.21 195.08 41.31C195.08 40.75 194.86 40.37 194.42 40.17C194.2 40.03 194 39.91 193.82 39.81C193.66 39.71 193.51 39.63 193.37 39.57C193.37 39.23 193.37 39 193.37 38.88C193.39 38.76 193.37 38.6 193.31 38.4C193.27 38.3 193.26 38.08 193.28 37.74C193.3 37.38 193.32 36.93 193.34 36.39C193.38 35.83 193.36 35.38 193.28 35.04C193.2 34.68 193.08 34.5 192.92 34.5C192.94 34.24 192.95 33.98 192.95 33.72C192.97 33.46 192.99 33.23 193.01 33.03C193.03 32.93 193.04 32.82 193.04 32.7C193.04 32.58 193.04 32.47 193.04 32.37C193.08 32.29 193.11 32.23 193.13 32.19C193.15 32.13 193.17 32.09 193.19 32.07C193.21 32.03 193.3 31.98 193.46 31.92C193.64 31.84 193.8 31.63 193.94 31.29C194.4 30.97 194.6 30.68 194.54 30.42C194.48 30.16 194.13 29.98 193.49 29.88C193.35 29.9 193.23 29.94 193.13 30C193.05 30.04 193.01 30.15 193.01 30.33L191.21 30.72L190.67 30.39ZM211.359 40.71C211.279 40.49 211.079 40.19 210.759 39.81C210.439 39.41 210.189 38.98 210.009 38.52C209.669 37.6 209.419 36.95 209.259 36.57C209.119 36.17 208.989 35.95 208.869 35.91C208.769 35.87 208.639 35.76 208.479 35.58C208.319 35.4 208.139 35.27 207.939 35.19C207.719 34.49 207.459 33.75 207.159 32.97C206.859 32.17 206.459 31.43 205.959 30.75C205.739 30.45 205.579 30.2 205.479 30C205.399 29.78 205.329 29.59 205.269 29.43C205.229 29.27 205.179 29.14 205.119 29.04C205.059 28.92 204.959 28.81 204.819 28.71V27.6C205.019 27.48 205.279 27.42 205.599 27.42C205.739 27.42 205.829 27.36 205.869 27.24C205.929 27.1 206.009 27 206.109 26.94C206.209 26.9 206.379 26.84 206.619 26.76C206.879 26.68 207.029 26.59 207.069 26.49L208.119 26.7C208.279 26.8 208.399 26.84 208.479 26.82C208.559 26.8 208.649 26.83 208.749 26.91C208.929 27.07 209.119 27.21 209.319 27.33C209.519 27.45 209.749 27.56 210.009 27.66C209.949 27.7 210.009 27.99 210.189 28.53C210.389 29.05 210.649 29.69 210.969 30.45C211.289 31.21 211.639 32.03 212.019 32.91C212.419 33.77 212.789 34.55 213.129 35.25C213.489 35.95 213.789 36.51 214.029 36.93C214.289 37.35 214.439 37.49 214.479 37.35C214.559 37.37 214.659 37.21 214.779 36.87C214.899 36.53 215.039 36.13 215.199 35.67C215.339 35.17 215.499 34.75 215.679 34.41C215.859 34.07 215.989 33.82 216.069 33.66C216.329 33.5 216.499 33.34 216.579 33.18C216.679 33.02 216.809 32.83 216.969 32.61C217.089 32.47 217.169 32.32 217.209 32.16C217.269 31.98 217.309 31.88 217.329 31.86C217.489 31.54 217.699 31.17 217.959 30.75C218.239 30.33 218.389 29.85 218.409 29.31C218.449 28.95 218.519 28.64 218.619 28.38C218.739 28.1 218.819 27.88 218.859 27.72L219.759 27.63L220.749 28.32C220.749 28.56 220.709 28.78 220.629 28.98C220.549 29.16 220.519 29.33 220.539 29.49C220.539 29.57 220.499 29.68 220.419 29.82C220.339 29.94 220.249 30.07 220.149 30.21C220.069 30.35 219.989 30.49 219.909 30.63C219.849 30.75 219.819 30.84 219.819 30.9C219.799 31.04 219.719 31.2 219.579 31.38C219.439 31.56 219.359 31.79 219.339 32.07C219.339 32.65 219.249 33.06 219.069 33.3C218.849 33.62 218.569 34.06 218.229 34.62C217.889 35.16 217.529 35.8 217.149 36.54C216.769 37.28 216.469 37.92 216.249 38.46C216.029 38.98 215.899 39.3 215.859 39.42L215.619 39.84L214.959 40.89C214.619 41.09 214.259 41.21 213.879 41.25C213.499 41.29 213.099 41.19 212.679 40.95L212.019 41.19L211.359 40.71ZM235.297 34.2C234.857 34.14 234.467 34.22 234.127 34.44C234.007 34.5 233.887 34.56 233.767 34.62C233.647 34.66 233.527 34.7 233.407 34.74C233.347 34.76 233.287 34.78 233.227 34.8C233.167 34.82 233.117 34.84 233.077 34.86L228.907 36.12C227.747 35.86 227.337 36.05 227.677 36.69C227.737 36.83 227.817 37.04 227.917 37.32C228.017 37.6 228.097 37.8 228.157 37.92C228.417 38.02 228.687 38.18 228.967 38.4C229.247 38.6 229.507 38.72 229.747 38.76L230.287 38.7C230.427 38.7 230.617 38.69 230.857 38.67C231.117 38.65 231.367 38.62 231.607 38.58C231.867 38.52 232.097 38.45 232.297 38.37C232.517 38.29 232.667 38.19 232.747 38.07C232.807 37.97 232.897 37.9 233.017 37.86C233.137 37.8 233.257 37.75 233.377 37.71C233.457 37.69 233.527 37.68 233.587 37.68C233.667 37.66 233.757 37.64 233.857 37.62L234.187 38.79L233.827 39.48C233.807 39.52 233.737 39.57 233.617 39.63C233.517 39.67 233.397 39.73 233.257 39.81C233.117 39.89 232.977 39.97 232.837 40.05C232.717 40.11 232.627 40.17 232.567 40.23C232.527 40.27 232.417 40.29 232.237 40.29C232.077 40.29 231.887 40.29 231.667 40.29C231.467 40.29 231.257 40.3 231.037 40.32C230.817 40.34 230.647 40.38 230.527 40.44C230.247 40.58 230.027 40.67 229.867 40.71C229.727 40.75 229.607 40.78 229.507 40.8C229.407 40.84 229.337 40.83 229.297 40.77C229.257 40.75 229.187 40.74 229.087 40.74C229.027 40.74 228.947 40.74 228.847 40.74C228.747 40.74 228.647 40.73 228.547 40.71C228.287 40.69 228.077 40.68 227.917 40.68C227.757 40.66 227.657 40.65 227.617 40.65L224.737 39.24C224.677 38.64 224.397 38.34 223.897 38.34C223.797 38.34 223.677 38.26 223.537 38.1C223.397 37.92 223.277 37.73 223.177 37.53C223.097 37.43 223.027 37.32 222.967 37.2C222.907 37.06 222.847 36.91 222.787 36.75L222.517 33.33L222.787 31.32C222.807 31.24 222.867 31.14 222.967 31.02C223.087 30.82 223.237 30.52 223.417 30.12C223.497 29.94 223.657 29.77 223.897 29.61C224.137 29.45 224.387 29.31 224.647 29.19C224.927 29.05 225.187 28.93 225.427 28.83C225.687 28.71 225.877 28.61 225.997 28.53C226.237 28.57 226.587 28.31 227.047 27.75C227.167 27.61 227.317 27.5 227.497 27.42C227.677 27.32 227.857 27.24 228.037 27.18C228.137 27.14 228.247 27.11 228.367 27.09C228.487 27.07 228.597 27.05 228.697 27.03L232.207 27.48C232.407 27.52 232.617 27.58 232.837 27.66C232.997 27.74 233.157 27.84 233.317 27.96C233.477 28.08 233.607 28.22 233.707 28.38C233.847 28.72 234.047 29 234.307 29.22C234.567 29.42 234.777 29.56 234.937 29.64L236.047 31.62L235.807 33.57L235.297 34.2ZM230.857 33.18L231.097 33C231.157 32.96 231.217 32.92 231.277 32.88C231.337 32.82 231.387 32.78 231.427 32.76C231.567 32.72 231.727 32.64 231.907 32.52C232.087 32.4 232.157 32.25 232.117 32.07C232.117 31.73 231.937 31.35 231.577 30.93C231.217 30.51 230.747 30.21 230.167 30.03C229.887 29.93 229.617 29.88 229.357 29.88C229.097 29.88 228.847 29.9 228.607 29.94C228.387 29.96 228.177 29.99 227.977 30.03C227.797 30.07 227.647 30.09 227.527 30.09C227.067 29.99 226.807 30.2 226.747 30.72C226.447 31.18 226.297 31.69 226.297 32.25C226.317 32.79 226.377 33.31 226.477 33.81C226.477 34.09 226.527 34.32 226.627 34.5C226.747 34.68 226.887 34.79 227.047 34.83C227.207 34.87 227.367 34.84 227.527 34.74C227.707 34.62 227.857 34.41 227.977 34.11L230.857 33.18ZM249.572 27.9V29.28H248.792L247.652 30.18C246.672 30.32 245.872 30.52 245.252 30.78C244.632 31.02 244.342 31.36 244.382 31.8C244.342 31.9 244.322 32.02 244.322 32.16C244.322 32.28 244.392 32.34 244.532 32.34L243.932 35.34L243.662 35.67V39L243.482 40.68L242.882 41.28L239.462 41.04L238.712 40.02L238.922 39.48L238.802 37.83L239.162 34.8L239.462 32.58C239.462 32.52 239.472 32.47 239.492 32.43C239.492 32.39 239.492 32.34 239.492 32.28C239.512 32.22 239.522 32.17 239.522 32.13C239.622 32.05 239.682 31.87 239.702 31.59C239.742 31.31 239.752 31.13 239.732 31.05C239.732 30.91 239.722 30.78 239.702 30.66C239.702 30.54 239.662 30.28 239.582 29.88C239.562 29.76 239.492 29.62 239.372 29.46C239.272 29.28 239.162 29.12 239.042 28.98L239.432 28.05H240.002L243.092 27.48L243.842 27.84C243.782 28.18 243.772 28.47 243.812 28.71C243.872 28.93 243.952 29.1 244.052 29.22C244.172 29.34 244.302 29.42 244.442 29.46C244.582 29.48 244.702 29.46 244.802 29.4L245.342 29.1C245.442 29.06 245.472 28.95 245.432 28.77C245.412 28.59 245.422 28.36 245.462 28.08L249.182 27.42L249.572 27.9ZM252.293 29.67L253.583 27.6C253.663 27.6 253.743 27.6 253.823 27.6C253.903 27.58 253.993 27.56 254.093 27.54C254.253 27.52 254.463 27.49 254.723 27.45C254.983 27.41 255.283 27.37 255.623 27.33C256.983 27.17 257.483 26.84 257.123 26.34L261.413 25.71H262.523L262.733 25.95L262.853 26.94L262.343 27.33L260.843 27.36L258.893 28.32L256.733 29.01L256.373 29.82L257.063 31.5L257.903 31.62L258.293 32.49L259.013 32.43L259.433 32.94C259.613 32.88 259.793 32.84 259.973 32.82C260.153 32.78 260.313 32.78 260.453 32.82C260.553 32.84 260.663 32.86 260.783 32.88C260.903 32.88 261.043 32.9 261.203 32.94C261.403 33 261.543 33.07 261.623 33.15C261.703 33.21 261.773 33.27 261.833 33.33C261.893 33.37 261.963 33.41 262.043 33.45C262.123 33.49 262.263 33.51 262.463 33.51C262.523 33.63 262.633 33.75 262.793 33.87C262.973 33.99 263.163 34.11 263.363 34.23C263.583 34.35 263.793 34.47 263.993 34.59C264.213 34.71 264.373 34.83 264.473 34.95C264.513 34.99 264.533 35.02 264.533 35.04C264.553 35.06 264.583 35.09 264.623 35.13L264.803 36.57L264.143 38.37L263.963 39.63L262.493 40.38L260.063 41.34L258.593 41.13C258.073 41.05 257.613 41.05 257.213 41.13C256.813 41.21 256.443 41.25 256.103 41.25H252.803L252.443 40.35L252.683 39.48L257.033 39.03L258.473 38.85L260.273 36.93L260.003 36.06L258.683 35.82L256.373 35.19L255.983 35.4L254.723 34.83L253.913 34.29L252.983 32.25L252.293 30.9V29.67ZM280.355 34.2C279.915 34.14 279.525 34.22 279.185 34.44C279.065 34.5 278.945 34.56 278.825 34.62C278.705 34.66 278.585 34.7 278.465 34.74C278.405 34.76 278.345 34.78 278.285 34.8C278.225 34.82 278.175 34.84 278.135 34.86L273.965 36.12C272.805 35.86 272.395 36.05 272.735 36.69C272.795 36.83 272.875 37.04 272.975 37.32C273.075 37.6 273.155 37.8 273.215 37.92C273.475 38.02 273.745 38.18 274.025 38.4C274.305 38.6 274.565 38.72 274.805 38.76L275.345 38.7C275.485 38.7 275.675 38.69 275.915 38.67C276.175 38.65 276.425 38.62 276.665 38.58C276.925 38.52 277.155 38.45 277.355 38.37C277.575 38.29 277.725 38.19 277.805 38.07C277.865 37.97 277.955 37.9 278.075 37.86C278.195 37.8 278.315 37.75 278.435 37.71C278.515 37.69 278.585 37.68 278.645 37.68C278.725 37.66 278.815 37.64 278.915 37.62L279.245 38.79L278.885 39.48C278.865 39.52 278.795 39.57 278.675 39.63C278.575 39.67 278.455 39.73 278.315 39.81C278.175 39.89 278.035 39.97 277.895 40.05C277.775 40.11 277.685 40.17 277.625 40.23C277.585 40.27 277.475 40.29 277.295 40.29C277.135 40.29 276.945 40.29 276.725 40.29C276.525 40.29 276.315 40.3 276.095 40.32C275.875 40.34 275.705 40.38 275.585 40.44C275.305 40.58 275.085 40.67 274.925 40.71C274.785 40.75 274.665 40.78 274.565 40.8C274.465 40.84 274.395 40.83 274.355 40.77C274.315 40.75 274.245 40.74 274.145 40.74C274.085 40.74 274.005 40.74 273.905 40.74C273.805 40.74 273.705 40.73 273.605 40.71C273.345 40.69 273.135 40.68 272.975 40.68C272.815 40.66 272.715 40.65 272.675 40.65L269.795 39.24C269.735 38.64 269.455 38.34 268.955 38.34C268.855 38.34 268.735 38.26 268.595 38.1C268.455 37.92 268.335 37.73 268.235 37.53C268.155 37.43 268.085 37.32 268.025 37.2C267.965 37.06 267.905 36.91 267.845 36.75L267.575 33.33L267.845 31.32C267.865 31.24 267.925 31.14 268.025 31.02C268.145 30.82 268.295 30.52 268.475 30.12C268.555 29.94 268.715 29.77 268.955 29.61C269.195 29.45 269.445 29.31 269.705 29.19C269.985 29.05 270.245 28.93 270.485 28.83C270.745 28.71 270.935 28.61 271.055 28.53C271.295 28.57 271.645 28.31 272.105 27.75C272.225 27.61 272.375 27.5 272.555 27.42C272.735 27.32 272.915 27.24 273.095 27.18C273.195 27.14 273.305 27.11 273.425 27.09C273.545 27.07 273.655 27.05 273.755 27.03L277.265 27.48C277.465 27.52 277.675 27.58 277.895 27.66C278.055 27.74 278.215 27.84 278.375 27.96C278.535 28.08 278.665 28.22 278.765 28.38C278.905 28.72 279.105 29 279.365 29.22C279.625 29.42 279.835 29.56 279.995 29.64L281.105 31.62L280.865 33.57L280.355 34.2ZM275.915 33.18L276.155 33C276.215 32.96 276.275 32.92 276.335 32.88C276.395 32.82 276.445 32.78 276.485 32.76C276.625 32.72 276.785 32.64 276.965 32.52C277.145 32.4 277.215 32.25 277.175 32.07C277.175 31.73 276.995 31.35 276.635 30.93C276.275 30.51 275.805 30.21 275.225 30.03C274.945 29.93 274.675 29.88 274.415 29.88C274.155 29.88 273.905 29.9 273.665 29.94C273.445 29.96 273.235 29.99 273.035 30.03C272.855 30.07 272.705 30.09 272.585 30.09C272.125 29.99 271.865 30.2 271.805 30.72C271.505 31.18 271.355 31.69 271.355 32.25C271.375 32.79 271.435 33.31 271.535 33.81C271.535 34.09 271.585 34.32 271.685 34.5C271.805 34.68 271.945 34.79 272.105 34.83C272.265 34.87 272.425 34.84 272.585 34.74C272.765 34.62 272.915 34.41 273.035 34.11L275.915 33.18Z" fill="#68C545"/>
<path d="M18.1909 0.000493447C17.9405 -0.00443296 17.7086 0.0274236 17.5 0.10077C18.75 6.21294 17.5 13.1321 17.5 13.1321C17.5 13.1321 10 11.066 3.75 9.88024C3.75 18.1439 11.25 23.7544 11.25 23.7544C11.25 23.7544 3.75 24.9415 0 28.4865C5 32.0194 8.75 32.0195 10 34.391C6.475 37.7404 1.25 40.4411 1.25 40.4411L11.25 42.6543C11.25 42.6543 10 46.7244 7.5 51.443C10.6229 51.443 14.4414 50.633 15.6885 50.3495C18.417 56.0659 23.7606 60 30 60C36.227 60 41.5609 56.0808 44.2944 50.3829C45.4122 50.7042 48.2923 51.443 51.25 51.443C50 47.8979 48.75 42.6543 48.75 42.6543C48.75 42.6543 58.4125 40.7711 58.75 39.2186C55 36.8593 51.25 33.2044 51.25 33.2044C51.25 33.2044 57.5 30.4538 60 24.5494C53.75 24.5494 48.75 23.7544 48.75 23.7544C48.75 23.7544 52.5 15.8213 56.25 11.1027C50 9.91691 42.5 13.1321 42.5 13.1321C42.5 13.1321 41.25 6.00512 41.25 0.10077C37.9125 -1.07277 30 8.39994 30 8.39994C30 8.39994 21.9475 0.0743529 18.1909 0.000493447ZM30 14.77C37.4956 14.77 43.75 21.7761 43.75 30.6616V41.6635C43.75 50.549 37.4956 57.5551 30 57.5551C22.5044 57.5551 16.25 50.549 16.25 41.6635V30.6616C16.25 21.7761 22.5044 14.77 30 14.77ZM19.9512 24.5327C19.3384 24.5344 18.8172 24.9701 18.7202 25.5617C18.6232 26.1534 18.979 26.7266 19.5605 26.9155C19.5605 26.9155 20.4339 27.214 22.019 27.522C20.0987 28.4002 18.75 30.2962 18.75 32.4953C18.75 35.5189 21.2832 37.9962 24.375 37.9962C27.4668 37.9962 30 35.5189 30 32.4953C30 30.7341 29.1265 29.1755 27.7979 28.1666C28.4936 28.1967 29.2198 28.2167 30 28.2167C30.7802 28.2167 31.5064 28.1967 32.2022 28.1666C30.8735 29.1755 30 30.7341 30 32.4953C30 35.5189 32.5332 37.9962 35.625 37.9962C38.7168 37.9962 41.25 35.5189 41.25 32.4953C41.25 30.2962 39.9013 28.4002 37.981 27.522C39.5661 27.214 40.4395 26.9155 40.4395 26.9155C41.0124 26.7144 41.3539 26.1391 41.2484 25.5528C41.1428 24.9666 40.6209 24.5399 40.0122 24.5423C39.8575 24.5433 39.7044 24.5725 39.5606 24.6282C39.5606 24.6282 36.51 25.7719 30 25.7719C23.49 25.7719 20.4395 24.6282 20.4395 24.6282C20.2849 24.5647 20.1188 24.5322 19.9512 24.5327ZM24.375 29.4392C26.1157 29.4392 27.5 30.7929 27.5 32.4953C27.5 34.1976 26.1157 35.5513 24.375 35.5513C22.6343 35.5513 21.25 34.1976 21.25 32.4953C21.25 30.7929 22.6343 29.4392 24.375 29.4392ZM35.625 29.4392C37.3657 29.4392 38.75 30.7929 38.75 32.4953C38.75 34.1976 37.3657 35.5513 35.625 35.5513C33.8843 35.5513 32.5 34.1976 32.5 32.4953C32.5 30.7929 33.8843 29.4392 35.625 29.4392ZM36.25 30.6616C35.5597 30.6616 35 31.2089 35 31.884C35 32.5592 35.5597 33.1065 36.25 33.1065C36.9403 33.1065 37.5 32.5592 37.5 31.884C37.5 31.2089 36.9403 30.6616 36.25 30.6616ZM23.75 31.884C23.0597 31.884 22.5 32.4313 22.5 33.1065C22.5 33.7816 23.0597 34.3289 23.75 34.3289C24.4403 34.3289 25 33.7816 25 33.1065C25 32.4313 24.4403 31.884 23.75 31.884ZM31.2305 37.9795C30.5411 37.99 29.9906 38.5444 30 39.2186V42.6042C30 42.7382 29.987 42.7336 29.9756 42.8119C29.9154 42.7992 30.0024 42.808 29.8999 42.7618C29.2503 42.4686 28.3472 41.7041 28.3472 41.7041C28.0198 41.402 27.5516 41.2954 27.1215 41.4249C26.6913 41.5545 26.3656 41.9001 26.2686 42.3299C26.1716 42.7598 26.3184 43.2074 26.6528 43.5019C26.6528 43.5019 27.6247 44.4292 28.8501 44.9822C29.4628 45.2587 30.2616 45.5607 31.189 45.1422C31.6526 44.9329 32.0371 44.5103 32.2363 44.0606C32.4356 43.611 32.5 43.1377 32.5 42.6042V39.2186C32.5046 38.8882 32.3723 38.57 32.1331 38.3366C31.8939 38.1031 31.5683 37.9743 31.2305 37.9795ZM30 46.5532C24.7917 46.5532 20.8545 47.8377 20.8545 47.8377C20.4305 47.9759 20.1141 48.3247 20.0244 48.7529C19.9348 49.181 20.0856 49.6234 20.42 49.9134C20.7544 50.2033 21.2216 50.2968 21.6455 50.1584C21.6455 50.1584 22.0443 50.0456 22.6172 49.9006C22.6733 50.1508 22.7488 50.4203 22.8784 50.71C23.1682 51.3578 23.9304 51.9653 24.8803 52.3192C24.9266 52.6342 24.8725 52.7226 25.0659 53.1548C25.462 54.0402 26.555 55.1103 28.125 55.1103C29.6949 55.1103 30.788 54.0402 31.1841 53.1548C31.3631 52.7548 31.3052 52.6866 31.355 52.3813C31.639 52.3142 31.6902 52.3877 32.0264 52.1998C32.8409 51.7446 33.6509 50.6871 33.7329 49.2321C36.5183 49.5704 38.3545 50.1584 38.3545 50.1584C38.7784 50.2968 39.2456 50.2033 39.58 49.9134C39.9144 49.6234 40.0652 49.181 39.9756 48.7529C39.8859 48.3247 39.5695 47.9759 39.1455 47.8377C39.1455 47.8377 35.2083 46.5532 30 46.5532ZM30 48.9981C30.4305 48.9981 30.8386 49.0169 31.2476 49.0339C31.2398 49.8582 31.0172 49.9457 30.7861 50.0749C30.5509 50.2063 30.3125 50.2205 30.3125 50.2205C29.6222 50.2206 29.0626 50.7679 29.0625 51.443C29.0625 51.443 29.0448 51.8389 28.894 52.1759C28.7432 52.513 28.7426 52.6654 28.125 52.6654C27.5074 52.6654 27.5067 52.513 27.356 52.1759C27.2052 51.8389 27.1875 51.443 27.1875 51.443C27.1874 50.7679 26.6278 50.2206 25.9375 50.2205C25.3199 50.2205 25.3192 50.0681 25.1685 49.7311C25.1173 49.6166 25.0983 49.507 25.0732 49.3968C26.4354 49.1791 28.116 48.9981 30 48.9981Z" fill="#68C545"/>
</svg>
