<svg width="14" height="14" viewBox="0 0 14 14" fill="none" xmlns="http://www.w3.org/2000/svg">
<path d="M7.00044 0.4375H6.99956C3.37553 0.4375 0.4375 3.37575 0.4375 7C0.4375 10.6245 3.37553 13.5625 6.99956 13.5625H7.00044C10.6245 13.5625 13.5625 10.6243 13.5625 7C13.5625 3.37575 10.6245 0.4375 7.00044 0.4375ZM0.875 7C0.875 3.61747 3.61725 0.875 6.99956 0.875C7.05294 0.875 7.105 0.877844 7.15816 0.879156C7.32178 1.82875 7.43794 4.2105 7.43794 7C7.43794 9.78994 7.32178 12.1715 7.15816 13.1213C7.105 13.1224 7.05294 13.125 6.99956 13.125C3.61725 13.125 0.875 10.383 0.875 7Z" fill="#22A2BD"/>
</svg>
